# AST/ASF file generated using VICON BodyLanguage
# -----------------------------------------------
:version 1.10
:name VICON
:units
  mass 1.0
  length 0.45
  angle deg
:documentation
   .ast/.asf automatically generated from VICON data using
   VICON BodyBuilder and BodyLanguage model FoxedUp or BRILLIANT.MOD
:root
   order TX TY TZ RX RY RZ
   axis XYZ
   position 0 0 0  
   orientation 0 0 0 
:bonedata
  begin
     id 1 
     name lhipjoint
     direction 0.635376 -0.686425 0.353719 
     length 2.47244 
     axis 0 0 0  XYZ
  end
  begin
     id 2 
     name lfemur
     direction 0.34202 -0.939693 0  
     length 7.25268  
     axis 0 0 20  XYZ
    dof rx ry rz
    limits (-160.0 20.0)
           (-70.0 70.0)
           (-60.0 70.0)
  end
  begin
     id 3 
     name ltibia
     direction 0.34202 -0.939693 0   
     length 7.6767   
     axis 0 0 20   XYZ
    dof rx
    limits (-10.0 170.0)
  end
  begin
     id 4 
     name lfoot
     direction 0.0803374 -0.220725 0.972022   
     length 2.22945   
     axis -90 7.62852e-016 20   XYZ
    dof rx rz
    limits (-45.0 90.0)
           (-70.0 20.0)
  end
  begin
     id 5 
     name ltoes
     direction 1.53579e-011 -4.21994e-011 1   
     length 1.11848   
     axis -90 7.62852e-016 20   XYZ
    dof rx
    limits (-90.0 20.0)
  end
  begin
     id 6 
     name rhipjoint
     direction -0.664428 -0.664335 0.342336   
     length 2.55466  
     axis 0 0 0  XYZ 
  end
  begin
     id 7 
     name rfemur
     direction -0.34202 -0.939693 0   
     length 6.83172   
     axis 0 0 -20   XYZ
    dof rx ry rz
    limits (-160.0 20.0)
           (-70.0 70.0)
           (-70.0 60.0)
  end
  begin
     id 8 
     name rtibia
     direction -0.34202 -0.939693 0   
     length 7.62692   
     axis 0 0 -20   XYZ
    dof rx
    limits (-10.0 170.0)
 end
 begin
     id 9 
     name rfoot
     direction -0.0949276 -0.260811 0.960711   
     length 2.19684  
     axis -90 -7.62852e-016 -20   XYZ
    dof rx rz
    limits (-45.0 90.0)
           (-20.0 70.0)
  end
  begin
     id 10 
     name rtoes
     direction -1.53543e-011 -4.2183e-011 1   
     length 1.09848   
     axis -90 -7.62852e-016 -20   XYZ
    dof rx
    limits (-90.0 20.0)
  end
  begin
     id 11 
     name lowerback
     direction 0.0118782 0.999815 -0.0151555   
     length 2.15772   
     axis 0 0 0   XYZ
    dof rx ry rz
    limits (-20.0 45.0)
           (-30.0 30.0)
           (-30.0 30.0)
  end
  begin
     id 12 
     name upperback
     direction 0.00130825 0.999065 0.0432113   
     length 2.14863   
     axis 0 0 0   XYZ
    dof rx ry rz
    limits (-20.0 45.0)
           (-30.0 30.0)
           (-30.0 30.0)
  end
  begin
     id 13 
     name thorax
     direction -0.00347005 0.998773 0.0494011   
     length 2.14936   
     axis 0 0 0   XYZ
    dof rx ry rz
    limits (-20.0 45.0)
           (-30.0 30.0)
           (-30.0 30.0)
  end
  begin
     id 14 
     name lowerneck
     direction -0.0262159 0.99424 0.103921   
     length 1.69373   
     axis 0 0 0   XYZ
    dof rx ry rz
    limits (-20.0 45.0)
           (-30.0 30.0)
           (-30.0 30.0)
  end
  begin
     id 15 
     name upperneck
     direction 0.0353511 0.977394 -0.20845   
     length 1.70857   
     axis 0 0 0   XYZ
    dof rx ry rz
    limits (-20.0 45.0)
           (-30.0 30.0)
           (-30.0 30.0)
  end
  begin
     id 16
     name head
     direction 0.0139214 0.996594 -0.0812836  
     length 1.72777  
     axis 0 0 0   XYZ
    dof rx ry rz
    limits (-20.0 45.0)
           (-30.0 30.0)
           (-30.0 30.0)
  end
  begin
     id 17 
     name lclavicle
     direction 0.841247 0.537205 -0.0609508  
     length 3.55371  
     axis 0 0 0   XYZ
    dof ry rz
    limits (-20.0 10.0)
           (0.0 20.0)
  end
  begin
     id 18 
     name lhumerus
     direction 1 -4.48964e-011 1.60116e-018   
     length 4.91377   
     axis -180 -30 -90   XYZ
    dof rx ry rz
    limits (-60.0 90.0)
           (-90.0 90.0)
           (-90.0 90.0)
  end
  begin
     id 19
     name lradius
     direction 1 -4.48989e-011 -8.93847e-027   
     length 3.00291   
     axis -180 -30 -90   XYZ
    dof rx
    limits (-10.0 170.0)
  end
  begin
     id 20
     name lwrist
     direction 1 -4.48932e-011 -7.31504e-027   
     length 1.50145   
     axis 5.74121e-015 90 90   XYZ
    dof ry
    limits (-180.0 0.0)
 end
  begin
     id 21 
     name lhand
     direction 1 -4.48971e-011 -1.46301e-026   
     length 0.450922   
     axis 9.33524e-015 90 90   XYZ
    dof rx rz
    limits (-90.0 90.0)
           (-45.0 45.0)
  end
  begin
     id 22 
     name lfingers
     direction 1 -4.49039e-011 -2.92602e-026   
     length 0.363545   
     axis 1.86705e-014 90 90   XYZ
    dof rx
    limits (0.0 90.0)
  end
  begin
     id 23
     name lthumb
     direction 0.707107 -6.34941e-011 0.707107   
     length 0.52198   
     axis -90 45 2.85299e-015   XYZ
    dof rx rz
    limits (-45.0 45.0)
           (-45.0 45.0)
  end
  begin
     id 24 
     name rclavicle
     direction -0.825079 0.56158 -0.0622297   
     length 3.39909  
     axis 0 0 0   XYZ 
    dof ry rz
    limits (-10.0 20.0)
           (-20.0 0.0)
  end
  begin
     id 25 
     name rhumerus
     direction -1 -4.48965e-011 1.61691e-027  
     length 4.86725   
     axis -180 30 90   XYZ
    dof rx ry rz
    limits (-90.0 60.0)
           (-90.0 90.0)
           (-90.0 90.0)
  end
  begin
     id 26 
     name rradius
     direction -1 -4.48964e-011 -2.25776e-027   
     length 3.17144   
     axis -180 30 90   XYZ
    dof rx
    limits (-10.0 170.0)
  end
  begin
     id 27 
     name rwrist
     direction -1 -4.48961e-011 -7.31504e-027   
     length 1.58572   
     axis 5.74121e-015 -90 -90   XYZ
    dof ry
    limits (-180.0 0.0)
  end
  begin
     id 28
     name rhand
     direction -1 -4.49013e-011 -1.46301e-026   
     length 0.419368   
     axis 9.33524e-015 -90 -90   XYZ
    dof rx rz
    limits (-90.0 90.0)
           (-45.0 45.0)
  end
  begin
     id 29
     name rfingers
     direction -1 -4.489e-011 -2.92602e-026   
     length 0.338105   
     axis 1.86705e-014 -90 -90   XYZ
    dof rx
    limits (0.0 90.0)
  end
  begin
     id 30
     name rthumb
     direction -0.707107 -6.35022e-011 0.707107   
     length 0.485453   
     axis -90 -45 -2.85299e-015   XYZ
    dof rx rz
    limits (-45.0 45.0)
           (-45.0 45.0)
  end
:hierarchy
  begin
    root lhipjoint rhipjoint lowerback
    lhipjoint lfemur
    lfemur ltibia
    ltibia lfoot
    lfoot ltoes
    rhipjoint rfemur
    rfemur rtibia
    rtibia rfoot
    rfoot rtoes
    lowerback upperback
    upperback thorax
    thorax lowerneck lclavicle rclavicle
    lowerneck upperneck
    upperneck head
    lclavicle lhumerus
    lhumerus lradius
    lradius lwrist
    lwrist lhand lthumb
    lhand lfingers
    rclavicle rhumerus
    rhumerus rradius
    rradius rwrist
    rwrist rhand rthumb
    rhand rfingers
  end

#!OML:ASF H:\Swim 2\Project 1\Capture day 1\Session 1\male.ASF
:FULLY-SPECIFIED
:DEGREES
1101
root 0.70569 14.9403 9.82012 101.436 -48.8666 -6.41221
lowerback -22.892 3.01244 12.5708
upperback 3.81827 1.72158 -8.54206
thorax 17.981 2.75975 -16.5964
lowerneck -20.9578 0.292391 -15.0097
upperneck 20.9202 3.04295 8.64599
head 9.71345 1.21007 5.99195
rclavicle 0 3.27995e-015
rhumerus -26.2683 12.5916 -54.7365
rradius 29.7972
rwrist -36.2126
rhand -6.44825 7.82994
rfingers 7.12502
rthumb 19.4014 -21.2222
lclavicle 0 3.27995e-015
lhumerus 300.439 -49.6037 -297.003
lradius 19.8634
lwrist 42.5001
lhand -32.3874 -13.8752
lfingers 7.12502
lthumb -5.62273 16.0302
rfemur -62.6864 2.71873 28.543
rtibia 75.0567
rfoot 16.5702 -3.07818
rtoes 15.2018
lfemur -67.2687 18.4668 -30.4043
ltibia 82.2361
lfoot 27.0567 -5.5241
ltoes 19.7178
1102
root 0.650864 14.972 9.82273 101.136 -48.8974 -6.04468
lowerback -22.8544 2.94382 12.6922
upperback 3.65694 1.5905 -8.52913
thorax 17.7071 2.67126 -16.686
lowerneck -21.293 0.192353 -15.1918
upperneck 20.8716 2.99471 8.76665
head 9.75903 1.19448 6.06796
rclavicle -6.36111e-015 -7.65321e-014
rhumerus -26.8694 10.2913 -51.3883
rradius 29.2974
rwrist -35.8555
rhand -5.194 6.94983
rfingers 7.12502
rthumb 20.607 -21.9763
lclavicle -6.36111e-015 -7.65321e-014
lhumerus 302.679 -47.3967 -303.17
lradius 18.2369
lwrist 41.057
lhand -31.3984 -12.9709
lfingers 7.12502
lthumb -4.66787 16.9576
rfemur -62.9978 2.50174 28.4483
rtibia 77.6237
rfoot 16.7281 -3.22148
rtoes 15.3291
lfemur -67.1624 19.0493 -30.4925
ltibia 84.2506
lfoot 27.292 -5.15226
ltoes 20.1145
1103
root 0.595572 15.0038 9.82728 100.901 -48.9318 -5.71394
lowerback -22.8456 2.89426 12.8082
upperback 3.47515 1.48481 -8.51763
thorax 17.4346 2.59124 -16.762
lowerneck -21.5602 0.0912804 -15.4205
upperneck 20.7988 2.92951 8.97282
head 9.78297 1.17797 6.178
rclavicle 1.43125e-014 5.28767e-014
rhumerus -27.3382 7.82781 -47.7917
rradius 28.8897
rwrist -35.4836
rhand -3.8937 5.95774
rfingers 7.12502
rthumb 21.856 -22.8279
lclavicle 1.43125e-014 5.28767e-014
lhumerus 305.097 -45.089 -309.77
lradius 16.9936
lwrist 39.9371
lhand -30.6434 -12.1293
lfingers 7.12502
lthumb -3.93882 17.814
rfemur -63.2685 2.31052 28.3556
rtibia 80.1321
rfoot 16.877 -3.41031
rtoes 15.4114
lfemur -67.0095 19.6311 -30.5504
ltibia 86.2005
lfoot 27.5911 -4.70641
ltoes 20.8641
1104
root 0.540254 15.0347 9.83409 100.743 -48.99 -5.42646
lowerback -22.8776 2.8633 12.8948
upperback 3.2672 1.40959 -8.50942
thorax 17.1648 2.51929 -16.8099
lowerneck -21.7537 -0.00324045 -15.7764
upperneck 20.7091 2.85575 9.37773
head 9.78179 1.17114 6.3788
rclavicle -1.51076e-014 2.25621e-014
rhumerus -27.6913 5.27522 -43.9813
rradius 28.5751
rwrist -35.1601
rhand -2.55672 5.0008
rfingers 7.12502
rthumb 23.1393 -23.6295
lclavicle -1.51076e-014 2.25621e-014
lhumerus 307.529 -42.7632 -316.531
lradius 16.1138
lwrist 39.1252
lhand -30.1079 -11.1604
lfingers 7.12502
lthumb -3.42167 18.7919
rfemur -63.4948 2.13813 28.2446
rtibia 82.562
rfoot 17.008 -3.67573
rtoes 15.5803
lfemur -66.8017 20.1979 -30.5998
ltibia 88.0633
lfoot 27.9611 -4.17978
ltoes 21.9995
1105
root 0.485162 15.0641 9.84302 100.677 -49.0774 -5.19048
lowerback -22.9642 2.85395 12.9432
upperback 3.02784 1.36973 -8.50469
thorax 16.9008 2.45679 -16.8227
lowerneck -21.9078 -0.0891952 -16.1829
upperneck 20.6553 2.77785 9.89017
head 9.7838 1.16914 6.62896
rclavicle -3.18055e-014 1.27123e-013
rhumerus -27.9407 2.65774 -39.9993
rradius 28.3542
rwrist -34.9082
rhand -1.2239 4.1781
rfingers 7.12502
rthumb 24.4176 -24.2859
lclavicle -3.18055e-014 1.27123e-013
lhumerus 309.821 -40.5782 -323.158
lradius 15.568
lwrist 38.694
lhand -29.7686 -9.95968
lfingers 7.12502
lthumb -3.09401 19.9976
rfemur -63.6807 1.98542 28.1158
rtibia 84.8972
rfoot 17.1192 -4.01276
rtoes 15.8507
lfemur -66.5426 20.7408 -30.6447
ltibia 89.8242
lfoot 28.4006 -3.66583
ltoes 23.3573
1106
root 0.430427 15.0912 9.8544 100.702 -49.2044 -4.99954
lowerback -23.114 2.86353 12.9325
upperback 2.75752 1.36584 -8.49974
thorax 16.6469 2.40236 -16.7829
lowerneck -21.9771 -0.148812 -16.605
upperneck 20.6018 2.71176 10.466
head 9.76732 1.17756 6.90549
rclavicle -4.53229e-014 2.98177e-014
rhumerus -28.0812 -0.0388765 -35.872
rradius 28.2192
rwrist -34.7169
rhand 0.137128 3.57189
rfingers 7.12502
rthumb 25.7217 -24.7099
lclavicle -4.53229e-014 2.98177e-014
lhumerus 311.873 -38.7292 -329.388
lradius 15.3243
lwrist 38.7832
lhand -29.6176 -8.56728
lfingers 7.12502
lthumb -2.9482 21.3921
rfemur -63.821 1.83738 27.9608
rtibia 87.1198
rfoot 17.2096 -4.41265
rtoes 16.2581
lfemur -66.2242 21.2369 -30.6905
ltibia 91.4674
lfoot 28.8762 -3.20356
ltoes 24.7385
1107
root 0.377338 15.1156 9.86683 100.8 -49.3562 -4.8422
lowerback -23.3202 2.89043 12.8753
upperback 2.46062 1.39153 -8.4878
thorax 16.4016 2.35463 -16.6927
lowerneck -22.0471 -0.212316 -17.0723
upperneck 20.6685 2.62479 11.1534
head 9.79419 1.18014 7.23762
rclavicle -4.77083e-014 -5.45664e-014
rhumerus -28.1134 -2.80912 -31.6467
rradius 28.1797
rwrist -34.6102
rhand 1.50045 3.16514
rfingers 7.12502
rthumb 27.0267 -24.9211
lclavicle -4.77083e-014 -5.45664e-014
lhumerus 313.683 -37.342 -335.106
lradius 15.3581
lwrist 39.5044
lhand -29.6439 -7.09829
lfingers 7.12502
lthumb -2.97358 22.8607
rfemur -63.9048 1.69035 27.7977
rtibia 89.2168
rfoot 17.2863 -4.87618
rtoes 16.864
lfemur -65.8434 21.6772 -30.7309
ltibia 92.9848
lfoot 29.3558 -3.00602
ltoes 25.6415
1108
root 0.326093 15.1369 9.88016 100.956 -49.5117 -4.70844
lowerback -23.572 2.93191 12.7874
upperback 2.14087 1.43768 -8.45615
thorax 16.1587 2.31018 -16.5494
lowerneck -22.0898 -0.262129 -17.48
upperneck 20.8038 2.5517 11.7463
head 9.84219 1.17862 7.53148
rclavicle -5.56597e-015 1.51573e-014
rhumerus -28.0492 -5.54155 -27.3866
rradius 28.2786
rwrist -34.6738
rhand 2.88332 2.81858
rfingers 7.12502
rthumb 28.3491 -25.0553
lclavicle -5.56597e-015 1.51573e-014
lhumerus 315.24 -36.5477 -340.202
lradius 15.662
lwrist 41.0355
lhand -29.8638 -5.74826
lfingers 7.12502
lthumb -3.18593 24.2077
rfemur -63.9104 1.5417 27.6479
rtibia 91.1657
rfoot 17.3333 -5.37802
rtoes 17.6742
lfemur -65.3966 22.0547 -30.7339
ltibia 94.3766
lfoot 29.8203 -3.05442
ltoes 26.0771
1109
root 0.277076 15.1551 9.89398 101.153 -49.6495 -4.5864
lowerback -23.8561 2.98816 12.685
upperback 1.79638 1.5004 -8.39899
thorax 15.9065 2.26759 -16.3569
lowerneck -22.1496 -0.310478 -17.8122
upperneck 21.0714 2.47888 12.2278
head 9.94481 1.16388 7.78158
rclavicle 7.95139e-016 -5.50882e-014
rhumerus -27.8938 -8.12742 -23.1723
rradius 28.5362
rwrist -35.0237
rhand 4.27561 2.48867
rfingers 7.12502
rthumb 29.6788 -25.1563
lclavicle 7.95139e-016 -5.50882e-014
lhumerus 316.644 -36.3328 -344.75
lradius 16.2146
lwrist 43.4043
lhand -30.2464 -4.73172
lfingers 7.12502
lthumb -3.5554 25.2184
rfemur -63.8272 1.38792 27.5364
rtibia 92.9479
rfoot 17.3508 -5.88131
rtoes 18.6054
lfemur -64.8891 22.3616 -30.6729
ltibia 95.6475
lfoot 30.2444 -3.32939
ltoes 26.0396
1110
root 0.230375 15.1697 9.90834 101.366 -49.7537 -4.45727
lowerback -24.1532 3.05651 12.5857
upperback 1.42379 1.57262 -8.31591
thorax 15.6283 2.22392 -16.1285
lowerneck -22.2414 -0.358162 -18.0382
upperneck 21.4949 2.40543 12.5598
head 10.1152 1.13261 7.96983
rclavicle 3.18055e-015 -3.71976e-014
rhumerus -27.6021 -10.5814 -19.0534
rradius 28.8947
rwrist -35.6156
rhand 5.72126 2.1813
rfingers 7.12502
rthumb 31.0577 -25.2092
lclavicle 3.18055e-015 -3.71976e-014
lhumerus 318.03 -36.587 -348.914
lradius 16.9941
lwrist 46.5106
lhand -30.7575 -4.15695
lfingers 7.12502
lthumb -4.04899 25.7843
rfemur -63.6319 1.21938 27.4816
rtibia 94.543
rfoot 17.3309 -6.34616
rtoes 19.553
lfemur -64.3135 22.5911 -30.5224
ltibia 96.8001
lfoot 30.6005 -3.77852
ltoes 25.6128
1111
root 0.185708 15.1809 9.92329 101.604 -49.8218 -4.32564
lowerback -24.4661 3.14062 12.4939
upperback 1.01568 1.65859 -8.21522
thorax 15.3196 2.18147 -15.8757
lowerneck -22.3601 -0.389575 -18.124
upperneck 22.0734 2.34278 12.7309
head 10.3515 1.09135 8.08683
rclavicle 1.11319e-014 1.96424e-014
rhumerus -27.1398 -12.8711 -15.0964
rradius 29.3269
rwrist -36.4584
rhand 7.27193 1.84181
rfingers 7.12502
rthumb 32.5345 -25.2555
lclavicle 1.11319e-014 1.96424e-014
lhumerus 319.604 -37.0507 -352.969
lradius 17.9467
lwrist 50.0559
lhand -31.3026 -3.96131
lfingers 7.12502
lthumb -4.57531 25.9693
rfemur -63.334 1.04379 27.4845
rtibia 95.9387
rfoot 17.2636 -6.74629
rtoes 20.4205
lfemur -63.6888 22.7436 -30.2724
ltibia 97.8397
lfoot 30.8938 -4.21702
ltoes 25.2257
1112
root 0.142699 15.1884 9.93957 101.872 -49.8712 -4.18989
lowerback -24.7977 3.23999 12.405
upperback 0.56665 1.76012 -8.11146
thorax 14.9774 2.14132 -15.6137
lowerneck -22.4817 -0.383143 -18.0516
upperneck 22.7976 2.30755 12.7537
head 10.6441 1.05052 8.13419
rclavicle -3.57812e-014 -1.05566e-014
rhumerus -26.4629 -15.0207 -11.3515
rradius 29.7912
rwrist -37.3676
rhand 8.94168 1.43092
rfingers 7.12502
rthumb 34.1219 -25.3257
lclavicle -3.57812e-014 -1.05566e-014
lhumerus 321.525 -37.5045 -357.113
lradius 18.996
lwrist 53.7587
lhand -31.7491 -4.08925
lfingers 7.12502
lthumb -5.00648 25.8316
rfemur -62.9428 0.847569 27.5235
rtibia 97.1257
rfoot 17.1505 -7.07179
rtoes 21.1764
lfemur -63.0197 22.8052 -29.9437
ltibia 98.7575
lfoot 31.1168 -4.41019
ltoes 25.2513
1113
root 0.101574 15.1924 9.95647 102.182 -49.9227 -4.05587
lowerback -25.1578 3.35537 12.3176
upperback 0.0745872 1.87973 -8.02451
thorax 14.6076 2.10629 -15.3656
lowerneck -22.6211 -0.334349 -17.8198
upperneck 23.6817 2.29565 12.6759
head 11.0026 1.01369 8.13126
rclavicle -3.97569e-015 -2.77305e-014
rhumerus -25.5406 -16.9702 -7.88678
rradius 30.2746
rwrist -38.2537
rhand 10.6739 0.954307
rfingers 7.12502
rthumb 35.7652 -25.4195
lclavicle -3.97569e-015 -2.77305e-014
lhumerus 323.837 -37.9107 -361.379
lradius 20.0754
lwrist 57.5664
lhand -32.05 -4.34563
lfingers 7.12502
lthumb -5.29703 25.5682
rfemur -62.4824 0.630447 27.5714
rtibia 98.107
rfoot 16.9961 -7.32973
rtoes 21.8251
lfemur -62.3255 22.7762 -29.5909
ltibia 99.5325
lfoot 31.252 -4.5727
ltoes 25.2659
1114
root 0.0617317 15.193 9.97487 102.525 -49.9758 -3.91733
lowerback -25.5384 3.48263 12.2317
upperback -0.461355 2.01202 -7.9538
thorax 14.2029 2.07319 -15.1328
lowerneck -22.7376 -0.221475 -17.4383
upperneck 24.6839 2.32814 12.5226
head 11.4019 0.994205 8.08771
rclavicle -2.78299e-014 -1.0461e-014
rhumerus -24.3368 -18.6891 -4.73253
rradius 30.7644
rwrist -38.983
rhand 12.4353 0.367053
rfingers 7.12502
rthumb 37.4323 -25.5844
lclavicle -2.78299e-014 -1.0461e-014
lhumerus 326.559 -38.1958 -365.767
lradius 21.1189
lwrist 61.331
lhand -32.1772 -4.56788
lfingers 7.12502
lthumb -5.41986 25.3428
rfemur -61.9503 0.385568 27.6235
rtibia 98.8711
rfoot 16.8066 -7.51481
rtoes 22.3301
lfemur -61.6071 22.647 -29.2173
ltibia 100.149
lfoot 31.3017 -4.68135
ltoes 25.2644
